<?xml version="1.0" encoding="utf-8"?>
<!-- Generator: Adobe Illustrator 23.0.3, SVG Export Plug-In . SVG Version: 6.00 Build 0)  -->
<svg version="1.1" id="Layer_1" xmlns="http://www.w3.org/2000/svg" xmlns:xlink="http://www.w3.org/1999/xlink" x="0px" y="0px"
	 viewBox="0 0 1000 1000" style="enable-background:new 0 0 1000 1000;" xml:space="preserve">
<path d="M831.3,3L831.3,3L665.7,98.7v0.1v419.9l-138.1,79.8L500,614.4l-0.1,0v0l-27.6-15.9l-138.1-79.8V98.8l0,0v-0.1l0,0L168.6,2.9
	l0,0L2.9,98.7v0.1v611.8l385.4,222.1v-0.2h0L500,997.1l0-105.7h0v0h0l0,105.7l111.6-64.5v0l385.4-222.5V98.8v-0.1L831.3,3z
	 M138.7,604.1L26.9,539.6V433.9l111.7,64.6V604.1z M138.7,463.1L26.9,398.6V292.8l111.7,64.6V463.1z M138.7,322L26.9,257.5V151.8
	l111.7,64.6V322z M18,98.7l150.6-87l150.6,87l-150.7,86.9L18,98.7z M401.2,928.2V840l96.5,55.8v88.2L401.2,928.2z M600,928.2
	l-96.5,55.8l0-88.2L600,840V928.2z M500,797.1L183.8,614.5l150.5-87l130.5,75.4l-0.1,0.1v0l35.3,20.4l35.3-20.4v0l-0.1-0.1
	l130.5-75.4l150.4,87L500,797.1z M973,534.7l-111.8,64.6V493.6L973,429V534.7z M973,396.1l-111.8,64.5V355L973,290.4V396.1z
	 M973,257.5L861.2,322V216.3L973,151.8V257.5z M831.3,185.6L680.8,98.7l150.6-87l150.6,87L831.3,185.6z"/>
</svg>
