<?xml version="1.0" encoding="utf-8"?>
<!-- Generator: Adobe Illustrator 23.0.3, SVG Export Plug-In . SVG Version: 6.00 Build 0)  -->
<svg version="1.1" id="Layer_1" xmlns="http://www.w3.org/2000/svg" xmlns:xlink="http://www.w3.org/1999/xlink" x="0px" y="0px"
	 viewBox="0 0 806.8 994.1" style="enable-background:new 0 0 806.8 994.1;" xml:space="preserve">
<style type="text/css">
	.st0{fill:#FFFFFF;}
</style>
<g>
	<path class="st0" d="M672.1,98.6L672.1,98.6l-134.4,77.6v0.1V517l-112.1,64.8l-22.4,12.9l-0.1,0v0l-22.4-12.9l-112-64.8V176.3l0,0
		v-0.1l0,0L134.4,98.5l0,0L0,176.2v0.1v496.4l312.7,180.2v-0.1h0l90.6,52.3l0-85.7h0v0h0l0,85.8l90.6-52.3v0l312.7-180.5v-496v-0.1
		L672.1,98.6z M110.1,586.3L19.5,534v-85.8l90.6,52.4V586.3z M110.1,471.9l-90.6-52.4v-85.8l90.6,52.4V471.9z M110.1,357.4
		l-90.6-52.4v-85.8l90.6,52.4V357.4z M12.2,176.2l122.2-70.6l122.2,70.6l-122.2,70.5L12.2,176.2z M323.2,849.2v-71.6l78.3,45.2v71.6
		L323.2,849.2z M484.4,849.2l-78.3,45.2l0-71.6l78.3-45.2V849.2z M403.3,742.9L146.7,594.7l122.1-70.6l105.9,61.2l-0.1,0v0
		l28.6,16.5l28.6-16.5v0l-0.1-0.1l105.9-61.2l122.1,70.6L403.3,742.9z M787,530l-90.7,52.4v-85.8l90.7-52.4V530z M787,417.5
		l-90.7,52.4v-85.8l90.7-52.4V417.5z M787,305.1l-90.7,52.4v-85.8l90.7-52.4V305.1z M672.1,246.7L550,176.2l122.2-70.6l122.2,70.6
		L672.1,246.7z"/>
	<path class="st0" d="M353.2,47.6c-0.3,8-2.6,14-6.7,18.1c-4.1,4.1-10,6.1-17.5,6.1c-3.9,0-7.3-0.6-10.4-1.9c-3-1.3-5.6-3.2-7.7-5.7
		c-2.1-2.5-3.7-5.7-4.8-9.4c-1.1-3.7-1.7-8-1.7-12.9V30c0-4.9,0.6-9.2,1.7-12.9c1.1-3.7,2.8-6.9,4.9-9.4c2.1-2.5,4.7-4.4,7.8-5.7
		c3-1.3,6.5-1.9,10.3-1.9c7.6,0,13.4,2.1,17.4,6.4c4,4.3,6.2,10.4,6.7,18.3h-14.2c-0.1-2.5-0.3-4.6-0.6-6.3c-0.4-1.7-0.9-3-1.7-4
		c-0.8-1-1.8-1.7-3-2.1c-1.2-0.4-2.8-0.6-4.6-0.6c-1.9,0-3.5,0.3-4.8,1c-1.3,0.6-2.4,1.7-3.2,3.1c-0.8,1.4-1.4,3.3-1.8,5.6
		c-0.4,2.3-0.6,5.2-0.6,8.5v12c0,3.3,0.2,6.1,0.5,8.4c0.3,2.3,0.9,4.2,1.7,5.6c0.8,1.5,1.9,2.5,3.2,3.2c1.3,0.7,3,1,5,1
		c1.7,0,3.2-0.2,4.4-0.6c1.2-0.4,2.2-1,3.1-1.9c0.8-0.9,1.4-2.2,1.8-3.8c0.4-1.6,0.7-3.7,0.8-6.2H353.2z"/>
	<path class="st0" d="M415,42.2c0,4.9-0.6,9.2-1.8,12.9c-1.2,3.7-2.9,6.8-5.1,9.3c-2.2,2.5-4.8,4.3-7.9,5.6s-6.5,1.9-10.3,1.9
		c-3.7,0-7.2-0.6-10.3-1.9c-3.1-1.2-5.8-3.1-8-5.6c-2.2-2.5-4-5.6-5.2-9.3c-1.2-3.7-1.9-8-1.9-12.9V30.6c0-5,0.6-9.5,1.8-13.3
		c1.2-3.8,2.9-7,5.1-9.6c2.2-2.6,4.9-4.5,8-5.8c3.1-1.3,6.5-1.9,10.3-1.9c3.7,0,7.2,0.6,10.3,1.9c3.1,1.3,5.7,3.2,8,5.8
		s3.9,5.8,5.2,9.6c1.2,3.8,1.8,8.3,1.8,13.3V42.2z M400.8,30.5c0-3.3-0.2-6.2-0.7-8.5c-0.5-2.4-1.2-4.3-2.1-5.8
		c-0.9-1.5-2.1-2.6-3.5-3.3c-1.4-0.7-3-1.1-4.8-1.1c-1.8,0-3.4,0.4-4.8,1.1c-1.4,0.7-2.5,1.8-3.5,3.3c-0.9,1.5-1.6,3.4-2.1,5.8
		c-0.5,2.4-0.7,5.2-0.7,8.5v11.7c0,3.2,0.2,5.9,0.7,8.1c0.5,2.3,1.2,4.1,2.1,5.5c0.9,1.4,2.1,2.5,3.5,3.2c1.4,0.7,3,1,4.8,1
		c1.8,0,3.4-0.3,4.7-1c1.4-0.7,2.5-1.7,3.4-3.2c0.9-1.4,1.6-3.3,2.1-5.5c0.5-2.3,0.7-5,0.7-8.1V30.5z"/>
	<polygon class="st0" points="443.6,0.5 457.2,52.5 470.7,0.5 489.6,0.5 489.6,72.4 475.1,72.4 475.1,52.9 476.4,22.9 462,72.4 
		452.2,72.4 437.8,22.9 439.1,52.9 439.1,72.4 424.6,72.4 424.6,0.5 	"/>
	<path class="st0" d="M513.7,46.5v24.9h-14.3V0.5h24.2c3.6,0,6.8,0.6,9.7,1.8c2.8,1.2,5.3,2.8,7.2,4.9c2,2.1,3.5,4.6,4.6,7.5
		c1.1,2.9,1.6,6,1.6,9.4c0,3.4-0.5,6.6-1.6,9.3c-1.1,2.8-2.6,5.1-4.6,7.1c-2,1.9-4.4,3.4-7.3,4.5c-2.9,1.1-6.1,1.6-9.6,1.6H513.7z
		 M513.7,34.5h9.8c1.5,0,2.8-0.3,3.9-0.8c1.1-0.5,2-1.2,2.7-2.2c0.7-0.9,1.2-2,1.5-3.3c0.3-1.3,0.5-2.7,0.5-4.2c0-1.5-0.2-3-0.5-4.4
		c-0.3-1.4-0.8-2.6-1.5-3.7c-0.7-1.1-1.6-1.9-2.7-2.6c-1.1-0.6-2.4-1-3.9-1h-9.8V34.5z"/>
	<path class="st0" d="M603.4,0.5v48.4c0,4.1-0.6,7.6-1.7,10.5c-1.1,2.9-2.7,5.3-4.8,7.1c-2.1,1.9-4.5,3.2-7.3,4.1
		c-2.8,0.9-5.9,1.3-9.3,1.3c-3.4,0-6.6-0.4-9.4-1.3c-2.9-0.9-5.3-2.2-7.4-4.1c-2-1.9-3.6-4.2-4.8-7.1c-1.1-2.9-1.7-6.4-1.7-10.5V0.5
		h14.3v48.4c0,2.3,0.2,4.2,0.6,5.7c0.4,1.5,1,2.6,1.7,3.4c0.8,0.8,1.7,1.4,2.8,1.7c1.1,0.3,2.4,0.5,3.8,0.5c1.4,0,2.7-0.1,3.8-0.5
		c1.1-0.3,2-0.9,2.8-1.7c0.7-0.8,1.3-2,1.7-3.4c0.4-1.4,0.6-3.3,0.6-5.7V0.5H603.4z"/>
	<polygon class="st0" points="663.4,12.4 645.9,12.4 645.9,71.4 631.5,71.4 631.5,12.4 614.2,12.4 614.2,0.5 663.4,0.5 	"/>
	<rect x="673.9" y="0.5" class="st0" width="14.4" height="71.4"/>
	<polygon class="st0" points="748.4,71.9 734,71.9 712.9,25 712.9,71.9 698.5,71.9 698.5,0.5 712.9,0.5 734,47.4 734,0.5 748.4,0.5 
			"/>
	<path class="st0" d="M806.8,63c-0.7,0.8-1.7,1.7-3,2.7c-1.2,1-2.8,2-4.7,2.9c-1.9,0.9-4,1.7-6.6,2.3c-2.5,0.6-5.4,0.9-8.7,0.9
		c-3.9,0-7.4-0.6-10.5-1.8c-3.1-1.2-5.8-3-8-5.5c-2.2-2.4-3.9-5.5-5.1-9.3c-1.2-3.7-1.8-8.1-1.8-13.2V30.4c0-5.1,0.6-9.5,1.7-13.2
		c1.1-3.7,2.8-6.8,4.9-9.3c2.1-2.5,4.7-4.3,7.7-5.5c3-1.2,6.5-1.8,10.2-1.8c3.9,0,7.3,0.5,10.2,1.5c2.9,1,5.2,2.5,7.2,4.4
		c1.9,2,3.4,4.4,4.4,7.3c1,2.9,1.7,6.2,2,10h-13.6c-0.2-2.2-0.5-4-0.9-5.5c-0.4-1.5-1-2.6-1.8-3.5c-0.8-0.9-1.7-1.5-2.9-1.9
		c-1.1-0.4-2.5-0.6-4-0.6c-1.8,0-3.5,0.3-4.8,1c-1.4,0.7-2.5,1.7-3.4,3.1c-0.9,1.4-1.6,3.3-2,5.6c-0.4,2.3-0.7,5.1-0.7,8.4v11.8
		c0,3.3,0.2,6.1,0.7,8.4c0.5,2.3,1.2,4.2,2.2,5.6c1,1.4,2.3,2.5,3.8,3.2c1.5,0.7,3.3,1,5.4,1c1.2,0,2.3-0.1,3.2-0.3
		c0.9-0.2,1.6-0.4,2.2-0.7c0.6-0.3,1.1-0.5,1.5-0.8c0.4-0.3,0.7-0.5,1-0.7V45h-9.8V34.4h23.9V63z"/>
	<path class="st0" d="M48.9,0.5v48.4c0,4.1-0.6,7.6-1.7,10.5c-1.1,2.9-2.7,5.3-4.8,7.1c-2,1.9-4.5,3.2-7.3,4.1
		c-2.8,0.9-5.9,1.3-9.3,1.3c-3.4,0-6.6-0.4-9.4-1.3c-2.9-0.9-5.3-2.2-7.4-4.1c-2-1.9-3.6-4.2-4.8-7.1c-1.1-2.9-1.7-6.4-1.7-10.5V0.5
		h14.3v48.4c0,2.3,0.2,4.2,0.6,5.7c0.4,1.5,1,2.6,1.7,3.4c0.8,0.8,1.7,1.4,2.8,1.7c1.1,0.3,2.4,0.5,3.8,0.5c1.4,0,2.7-0.1,3.8-0.5
		c1.1-0.3,2-0.9,2.8-1.7c0.7-0.8,1.3-2,1.7-3.4c0.4-1.4,0.6-3.3,0.6-5.7V0.5H48.9z"/>
	<path class="st0" d="M81.2,45.5h-7.1v25.9H59.8V0.5h22.8c3.5,0,6.7,0.5,9.5,1.4c2.8,0.9,5.1,2.3,7.1,4.1c1.9,1.8,3.4,4,4.4,6.7
		c1,2.7,1.5,5.8,1.5,9.3c0,2.6-0.2,4.9-0.7,6.9c-0.5,2.1-1.2,3.9-2,5.5c-0.9,1.6-2,3-3.2,4.2c-1.3,1.2-2.7,2.2-4.3,3.1l12.4,29v0.7
		H91.9L81.2,45.5z M74.1,33.6h8.1c2.9,0,5-1,6.4-2.8c1.4-1.9,2.1-4.4,2.1-7.6c0-1.6-0.2-3.1-0.5-4.4c-0.3-1.3-0.8-2.4-1.5-3.4
		c-0.7-0.9-1.5-1.6-2.6-2.1c-1-0.5-2.3-0.8-3.7-0.8h-8.5V33.6z"/>
	<path class="st0" d="M115.8,71.9V0.5h22.1c3.6,0,6.8,0.4,9.6,1.2c2.8,0.8,5.2,2,7.2,3.6c2,1.6,3.5,3.7,4.5,6.1
		c1,2.4,1.5,5.3,1.5,8.7c0,1.6-0.2,3.2-0.5,4.7c-0.3,1.5-0.9,2.9-1.6,4.2c-0.7,1.3-1.7,2.5-2.8,3.6c-1.1,1.1-2.5,1.9-4,2.6
		c1.8,0.5,3.4,1.3,4.7,2.4c1.3,1.1,2.3,2.3,3.1,3.7c0.8,1.4,1.4,2.9,1.7,4.6c0.4,1.6,0.5,3.3,0.5,5.1c0,6.9-1.9,12.2-5.7,15.7
		c-3.8,3.5-9.3,5.3-16.6,5.3H115.8z M130.2,30.3h7.5c2.9,0,5-0.7,6.4-2.2c1.4-1.5,2.1-3.7,2.1-6.5c0-3.2-0.6-5.6-2-7
		c-1.3-1.4-3.4-2.1-6.4-2.1h-7.6V30.3z M130.2,40.8v19.1h9.2c1.4,0,2.6-0.2,3.6-0.7c1-0.5,1.8-1.1,2.5-1.9c0.6-0.8,1.1-1.8,1.4-2.9
		c0.3-1.1,0.4-2.3,0.4-3.7c0-3-0.6-5.4-1.7-7.2c-1.1-1.8-3-2.6-5.7-2.6H130.2z"/>
	<path class="st0" d="M204.3,57.3h-19.7l-3.8,14.6h-15.2l22.3-71.4H201l22.5,71.4h-15.4L204.3,57.3z M187.8,45.2h13.3l-6.7-25.4
		L187.8,45.2z"/>
	<polygon class="st0" points="283.5,71.9 269,71.9 248,25 248,71.9 233.6,71.9 233.6,0.5 248,0.5 269.1,47.4 269.1,0.5 283.5,0.5 	
		"/>
	<polygon class="st0" points="32.7,963.7 7.7,963.7 7.7,994 2.6,994 2.6,929 36.4,929 36.4,933.8 7.7,933.8 7.7,958.9 32.7,958.9 	
		"/>
	<path class="st0" d="M125.2,968.4c0,4.2-0.5,7.9-1.4,11.1s-2.3,5.9-4.1,8c-1.8,2.2-3.9,3.8-6.4,4.9c-2.5,1.1-5.4,1.7-8.5,1.7
		c-3.1,0-6-0.5-8.5-1.7c-2.5-1.1-4.7-2.7-6.5-4.9c-1.8-2.2-3.2-4.8-4.2-8c-1-3.2-1.5-6.9-1.5-11.1v-13.6c0-4.2,0.5-7.9,1.4-11.1
		c1-3.2,2.3-5.9,4.1-8.1c1.8-2.2,3.9-3.8,6.5-4.9c2.5-1.1,5.3-1.7,8.5-1.7c3.2,0,6,0.6,8.5,1.7c2.5,1.1,4.7,2.8,6.5,4.9
		c1.8,2.2,3.1,4.9,4.1,8.1c1,3.2,1.4,6.9,1.4,11.1V968.4z M120.2,954.6c0-6.9-1.3-12.1-4-15.6c-2.7-3.5-6.5-5.2-11.5-5.2
		c-4.9,0-8.7,1.7-11.4,5.2c-2.7,3.5-4.1,8.7-4.1,15.6v13.7c0,7,1.4,12.2,4.1,15.7c2.7,3.5,6.6,5.2,11.5,5.2c5,0,8.9-1.7,11.5-5.2
		c2.6-3.5,3.9-8.7,3.9-15.7V954.6z"/>
	<path class="st0" d="M209,929v45.2c0,3.6-0.5,6.7-1.5,9.2c-1,2.5-2.4,4.6-4.1,6.1c-1.7,1.6-3.8,2.7-6.1,3.4
		c-2.3,0.7-4.8,1.1-7.4,1.1c-2.7,0-5.2-0.3-7.5-1.1c-2.3-0.7-4.3-1.8-6.1-3.4c-1.7-1.6-3.1-3.6-4-6.1c-1-2.5-1.5-5.6-1.5-9.2V929h5
		v45.2c0,2.8,0.3,5.1,1,7.1c0.7,1.9,1.7,3.5,2.9,4.7c1.2,1.2,2.7,2,4.5,2.6c1.7,0.5,3.6,0.8,5.7,0.8c2.1,0,3.9-0.3,5.7-0.8
		c1.7-0.5,3.2-1.4,4.4-2.6c1.2-1.2,2.2-2.7,2.9-4.7c0.7-1.9,1-4.3,1-7.1V929H209z"/>
	<polygon class="st0" points="295.6,994 290.5,994 259.8,938.6 259.8,994 254.7,994 254.7,929 259.8,929 290.5,984.5 290.5,929 
		295.6,929 	"/>
	<path class="st0" d="M341.1,994v-65h15.3c3.4,0,6.6,0.6,9.4,1.7c2.8,1.1,5.3,2.8,7.3,5c2,2.2,3.6,4.9,4.7,8.2
		c1.1,3.3,1.7,7,1.7,11.2v13c0,4.2-0.6,7.9-1.7,11.2c-1.1,3.2-2.7,6-4.7,8.1c-2,2.2-4.5,3.9-7.4,5c-2.9,1.1-6.1,1.7-9.7,1.7H341.1z
		 M346.2,933.8v55.5h9.9c2.9,0,5.5-0.5,7.8-1.4c2.3-0.9,4.2-2.3,5.8-4.1c1.6-1.8,2.8-4,3.6-6.7c0.8-2.6,1.2-5.7,1.2-9.1v-13.1
		c0-3.5-0.4-6.5-1.3-9.2c-0.8-2.6-2-4.8-3.6-6.6c-1.5-1.8-3.4-3.1-5.7-4c-2.2-0.9-4.7-1.3-7.5-1.3H346.2z"/>
	<path class="st0" d="M457.7,975.9h-24.4l-5.5,18.2h-5.3l20.7-65h4.7l20.7,65h-5.3L457.7,975.9z M434.8,971.1h21.4l-10.7-34.9
		L434.8,971.1z"/>
	<polygon class="st0" points="551.8,933.8 533.3,933.8 533.3,994 528.2,994 528.2,933.8 509.7,933.8 509.7,929 551.8,929 	"/>
	<rect x="613.4" y="929" class="st0" width="5.1" height="65"/>
	<path class="st0" d="M721.7,968.4c0,4.2-0.5,7.9-1.4,11.1c-0.9,3.2-2.3,5.9-4.1,8c-1.8,2.2-3.9,3.8-6.4,4.9
		c-2.5,1.1-5.4,1.7-8.5,1.7c-3.1,0-6-0.5-8.5-1.7c-2.5-1.1-4.7-2.7-6.5-4.9c-1.8-2.2-3.2-4.8-4.2-8c-1-3.2-1.5-6.9-1.5-11.1v-13.6
		c0-4.2,0.5-7.9,1.4-11.1c1-3.2,2.3-5.9,4.1-8.1c1.8-2.2,3.9-3.8,6.5-4.9c2.5-1.1,5.3-1.7,8.5-1.7c3.2,0,6,0.6,8.5,1.7
		c2.5,1.1,4.7,2.8,6.5,4.9c1.8,2.2,3.1,4.9,4.1,8.1c1,3.2,1.4,6.9,1.4,11.1V968.4z M716.7,954.6c0-6.9-1.3-12.1-4-15.6
		c-2.7-3.5-6.5-5.2-11.5-5.2c-4.9,0-8.7,1.7-11.4,5.2c-2.7,3.5-4.1,8.7-4.1,15.6v13.7c0,7,1.4,12.2,4.1,15.7
		c2.7,3.5,6.6,5.2,11.5,5.2c5,0,8.9-1.7,11.5-5.2c2.6-3.5,3.9-8.7,3.9-15.7V954.6z"/>
	<polygon class="st0" points="806.8,994.1 801.7,994.1 771.1,938.7 771.1,994.1 765.9,994.1 765.9,929 771.1,929 801.8,984.5 
		801.8,929 806.8,929 	"/>
</g>
</svg>
