<?xml version="1.0" encoding="utf-8"?>
<!-- Generator: Adobe Illustrator 23.0.3, SVG Export Plug-In . SVG Version: 6.00 Build 0)  -->
<svg version="1.1" id="Layer_1" xmlns="http://www.w3.org/2000/svg" xmlns:xlink="http://www.w3.org/1999/xlink" x="0px" y="0px"
	 viewBox="0 0 994.8 154.3" style="enable-background:new 0 0 994.8 154.3;" xml:space="preserve">
<g>
	<path d="M532.6,48.5c-0.4,8.1-2.6,14.3-6.8,18.5c-4.2,4.2-10.1,6.3-17.8,6.3c-3.9,0-7.5-0.7-10.6-2c-3.1-1.3-5.7-3.2-7.8-5.8
		c-2.1-2.6-3.7-5.8-4.9-9.6c-1.1-3.8-1.7-8.2-1.7-13.1V30.6c0-5,0.6-9.3,1.7-13.2c1.2-3.8,2.8-7,5-9.6c2.2-2.6,4.8-4.5,7.9-5.8
		c3.1-1.3,6.6-2,10.5-2c7.8,0,13.7,2.2,17.7,6.5c4,4.3,6.3,10.6,6.9,18.7h-14.4c-0.1-2.5-0.3-4.7-0.7-6.4c-0.4-1.7-1-3.1-1.7-4.1
		c-0.8-1-1.8-1.7-3.1-2.2c-1.3-0.4-2.8-0.6-4.7-0.6c-1.9,0-3.6,0.3-4.9,1c-1.4,0.6-2.5,1.7-3.3,3.2c-0.8,1.5-1.5,3.4-1.9,5.7
		c-0.4,2.4-0.6,5.3-0.6,8.7v12.2c0,3.3,0.2,6.2,0.5,8.5c0.3,2.4,0.9,4.3,1.7,5.8c0.8,1.5,1.9,2.6,3.2,3.3c1.3,0.7,3,1,5.1,1
		c1.8,0,3.3-0.2,4.5-0.6c1.3-0.4,2.3-1,3.1-2c0.8-0.9,1.4-2.3,1.9-3.9c0.4-1.7,0.7-3.8,0.8-6.3H532.6z"/>
	<path d="M595.6,43c0,5-0.6,9.4-1.9,13.2c-1.2,3.8-3,6.9-5.2,9.4c-2.2,2.5-4.9,4.4-8.1,5.7c-3.1,1.3-6.6,1.9-10.5,1.9
		c-3.8,0-7.3-0.6-10.5-1.9c-3.2-1.3-5.9-3.2-8.1-5.7c-2.3-2.5-4-5.7-5.3-9.4c-1.3-3.8-1.9-8.2-1.9-13.2V31.2c0-5.1,0.6-9.6,1.9-13.5
		c1.2-3.9,3-7.2,5.2-9.8c2.3-2.6,5-4.6,8.1-5.9c3.2-1.3,6.7-2,10.5-2c3.8,0,7.3,0.7,10.4,2c3.1,1.3,5.9,3.3,8.1,5.9
		c2.3,2.6,4,5.9,5.3,9.8c1.2,3.9,1.9,8.4,1.9,13.5V43z M581.2,31.1c0-3.4-0.2-6.3-0.7-8.7c-0.5-2.4-1.2-4.4-2.2-5.9
		c-0.9-1.5-2.1-2.7-3.5-3.4c-1.4-0.7-3-1.1-4.8-1.1c-1.9,0-3.5,0.4-4.9,1.1c-1.4,0.7-2.6,1.8-3.5,3.4c-0.9,1.5-1.7,3.5-2.2,5.9
		c-0.5,2.4-0.7,5.3-0.7,8.7V43c0,3.2,0.2,6,0.7,8.3c0.5,2.3,1.2,4.2,2.2,5.7c1,1.5,2.2,2.5,3.6,3.2c1.4,0.7,3.1,1,4.9,1
		c1.8,0,3.4-0.3,4.8-1c1.4-0.7,2.6-1.8,3.5-3.2c0.9-1.5,1.7-3.4,2.1-5.7c0.5-2.3,0.7-5.1,0.7-8.3V31.1z"/>
	<polygon points="624.7,0.5 638.5,53.4 652.3,0.5 671.6,0.5 671.6,73.7 656.8,73.7 656.8,53.9 658.1,23.4 643.5,73.7 633.5,73.7 
		618.8,23.4 620.2,53.9 620.2,73.7 605.4,73.7 605.4,0.5 	"/>
	<path d="M696.1,47.3v25.4h-14.6V0.5h24.6c3.7,0,7,0.6,9.9,1.8c2.9,1.2,5.4,2.9,7.4,5c2,2.1,3.6,4.7,4.6,7.6
		c1.1,2.9,1.6,6.1,1.6,9.6c0,3.5-0.5,6.7-1.6,9.5c-1.1,2.8-2.6,5.2-4.6,7.2c-2,2-4.5,3.5-7.4,4.6c-2.9,1.1-6.2,1.6-9.8,1.6H696.1z
		 M696.1,35.2h10c1.5,0,2.8-0.3,3.9-0.8c1.1-0.5,2-1.3,2.7-2.2c0.7-0.9,1.2-2.1,1.6-3.4c0.3-1.3,0.5-2.7,0.5-4.3s-0.2-3-0.5-4.5
		c-0.3-1.4-0.9-2.7-1.6-3.8c-0.7-1.1-1.6-2-2.7-2.6c-1.1-0.7-2.4-1-3.9-1h-10V35.2z"/>
	<path d="M787.5,0.5v49.3c0,4.2-0.6,7.7-1.8,10.7c-1.2,3-2.8,5.4-4.9,7.3c-2.1,1.9-4.6,3.3-7.5,4.2c-2.9,0.9-6,1.3-9.5,1.3
		c-3.5,0-6.7-0.4-9.6-1.3c-2.9-0.9-5.4-2.3-7.5-4.2c-2.1-1.9-3.7-4.3-4.9-7.3c-1.2-3-1.7-6.5-1.7-10.7V0.5h14.6v49.3
		c0,2.4,0.2,4.3,0.6,5.8c0.4,1.5,1,2.6,1.8,3.5c0.8,0.8,1.7,1.4,2.9,1.7c1.1,0.3,2.4,0.5,3.9,0.5c1.5,0,2.8-0.2,3.9-0.5
		c1.1-0.3,2.1-0.9,2.8-1.7c0.8-0.8,1.3-2,1.7-3.5c0.4-1.5,0.6-3.4,0.6-5.8V0.5H787.5z"/>
	<polygon points="848.7,12.7 830.8,12.7 830.8,72.8 816.1,72.8 816.1,12.7 798.6,12.7 798.6,0.5 848.7,0.5 	"/>
	<rect x="859.3" y="0.5" width="14.7" height="72.7"/>
	<polygon points="935.2,73.2 920.6,73.2 899.1,25.5 899.1,73.2 884.4,73.2 884.4,0.5 899.1,0.5 920.6,48.2 920.6,0.5 935.2,0.5 	"/>
	<path d="M994.8,64.2c-0.7,0.8-1.8,1.7-3,2.8c-1.3,1-2.8,2-4.7,2.9c-1.9,0.9-4.1,1.7-6.7,2.3c-2.6,0.6-5.5,1-8.8,1
		c-4,0-7.5-0.6-10.7-1.9c-3.2-1.2-5.9-3.1-8.2-5.6c-2.3-2.5-4-5.6-5.2-9.5c-1.2-3.8-1.8-8.3-1.8-13.4v-12c0-5.2,0.6-9.6,1.7-13.4
		c1.2-3.8,2.8-7,5-9.5c2.2-2.5,4.8-4.4,7.9-5.6c3.1-1.2,6.6-1.8,10.4-1.8c4,0,7.5,0.5,10.4,1.5c2.9,1,5.3,2.5,7.3,4.5
		c1.9,2,3.4,4.5,4.5,7.4s1.7,6.3,2,10.1h-13.9c-0.2-2.2-0.5-4.1-1-5.6c-0.4-1.5-1.1-2.7-1.8-3.6c-0.8-0.9-1.8-1.5-2.9-1.9
		c-1.1-0.4-2.5-0.6-4.1-0.6c-1.9,0-3.5,0.3-4.9,1c-1.4,0.7-2.6,1.7-3.5,3.2c-0.9,1.5-1.6,3.4-2.1,5.7c-0.5,2.3-0.7,5.2-0.7,8.5v12.1
		c0,3.4,0.3,6.2,0.8,8.6c0.5,2.3,1.3,4.2,2.3,5.7c1,1.5,2.3,2.5,3.9,3.2c1.6,0.7,3.4,1,5.5,1c1.3,0,2.3-0.1,3.2-0.3
		c0.9-0.2,1.7-0.4,2.3-0.7c0.6-0.3,1.1-0.6,1.6-0.9c0.4-0.3,0.8-0.5,1-0.7v-13h-10V35h24.4V64.2z"/>
	<path d="M222.6,0.5v49.3c0,4.2-0.6,7.7-1.8,10.7c-1.2,3-2.8,5.4-4.9,7.3c-2.1,1.9-4.6,3.3-7.5,4.2c-2.9,0.9-6,1.3-9.5,1.3
		c-3.5,0-6.7-0.4-9.6-1.3c-2.9-0.9-5.4-2.3-7.5-4.2c-2.1-1.9-3.7-4.3-4.9-7.3c-1.2-3-1.7-6.5-1.7-10.7V0.5H190v49.3
		c0,2.4,0.2,4.3,0.6,5.8s1,2.6,1.8,3.5c0.8,0.8,1.7,1.4,2.9,1.7c1.1,0.3,2.4,0.5,3.9,0.5c1.5,0,2.8-0.2,3.9-0.5
		c1.1-0.3,2.1-0.9,2.8-1.7c0.8-0.8,1.3-2,1.7-3.5s0.6-3.4,0.6-5.8V0.5H222.6z"/>
	<path d="M255.5,46.3h-7.2v26.4h-14.6V0.5H257c3.6,0,6.8,0.5,9.7,1.4c2.8,0.9,5.2,2.3,7.2,4.2c2,1.8,3.5,4.1,4.5,6.8
		c1,2.7,1.6,5.9,1.6,9.4c0,2.6-0.2,5-0.7,7.1c-0.5,2.1-1.2,4-2.1,5.6c-0.9,1.6-2,3.1-3.3,4.3c-1.3,1.2-2.7,2.3-4.4,3.2l12.7,29.6
		v0.7h-15.7L255.5,46.3z M248.3,34.2h8.3c2.9,0,5.1-1,6.6-2.9c1.5-1.9,2.2-4.5,2.2-7.8c0-1.7-0.2-3.2-0.5-4.5
		c-0.3-1.3-0.8-2.5-1.5-3.4c-0.7-0.9-1.5-1.7-2.6-2.2c-1.1-0.5-2.3-0.8-3.8-0.8h-8.7V34.2z"/>
	<path d="M290.8,73.2V0.5h22.5c3.6,0,6.9,0.4,9.8,1.2c2.9,0.8,5.3,2,7.3,3.7c2,1.6,3.5,3.7,4.6,6.2c1,2.5,1.6,5.4,1.6,8.8
		c0,1.7-0.2,3.3-0.5,4.8c-0.3,1.5-0.9,3-1.6,4.3c-0.8,1.3-1.7,2.5-2.8,3.6c-1.1,1.1-2.5,2-4.1,2.7c1.9,0.5,3.4,1.3,4.7,2.4
		c1.3,1.1,2.3,2.3,3.1,3.8c0.8,1.4,1.4,3,1.7,4.7c0.4,1.7,0.5,3.4,0.5,5.2c0,7.1-1.9,12.4-5.8,16c-3.9,3.6-9.5,5.4-16.9,5.4H290.8z
		 M305.4,30.9h7.6c2.9,0,5.1-0.8,6.5-2.3c1.4-1.5,2.1-3.7,2.1-6.7c0-3.3-0.7-5.7-2-7.1c-1.3-1.4-3.5-2.1-6.5-2.1h-7.8V30.9z
		 M305.4,41.6V61h9.4c1.4,0,2.7-0.2,3.7-0.7c1-0.5,1.8-1.1,2.5-2c0.6-0.9,1.1-1.8,1.4-3c0.3-1.1,0.4-2.4,0.4-3.8
		c0-3.1-0.6-5.5-1.7-7.3c-1.1-1.8-3.1-2.7-5.8-2.7H305.4z"/>
	<path d="M380.9,58.3h-20L357,73.2h-15.5l22.7-72.7h13.4l22.9,72.7h-15.7L380.9,58.3z M364.1,46.1h13.6l-6.8-25.9L364.1,46.1z"/>
	<polygon points="461.6,73.2 446.9,73.2 425.4,25.5 425.4,73.2 410.7,73.2 410.7,0.5 425.4,0.5 446.9,48.2 446.9,0.5 461.6,0.5 	"/>
	<polygon points="206.1,123.4 180.6,123.4 180.6,154.2 175.4,154.2 175.4,88 209.9,88 209.9,92.9 180.6,92.9 180.6,118.5 
		206.1,118.5 	"/>
	<path d="M300.3,128.1c0,4.3-0.5,8-1.4,11.3c-1,3.3-2.3,6-4.1,8.2c-1.8,2.2-4,3.9-6.6,5c-2.6,1.1-5.5,1.7-8.7,1.7
		c-3.2,0-6.1-0.6-8.6-1.7c-2.6-1.1-4.8-2.8-6.6-5c-1.8-2.2-3.2-4.9-4.2-8.2c-1-3.3-1.5-7-1.5-11.3v-13.9c0-4.3,0.5-8,1.5-11.3
		c1-3.3,2.4-6,4.2-8.2c1.8-2.2,4-3.9,6.6-5c2.6-1.1,5.4-1.7,8.6-1.7c3.2,0,6.1,0.6,8.7,1.7c2.6,1.1,4.8,2.8,6.6,5
		c1.8,2.2,3.2,5,4.2,8.2c1,3.3,1.5,7,1.5,11.3V128.1z M295.2,114.1c0-7.1-1.4-12.4-4.1-15.9c-2.7-3.5-6.6-5.3-11.7-5.3
		c-5,0-8.9,1.8-11.6,5.3c-2.8,3.5-4.2,8.8-4.2,15.9v14c0,7.1,1.4,12.4,4.2,16c2.8,3.6,6.7,5.3,11.7,5.3c5.1,0,9-1.8,11.7-5.3
		c2.7-3.5,4-8.9,4-16V114.1z"/>
	<path d="M385.7,88v46.1c0,3.7-0.5,6.8-1.6,9.4c-1,2.6-2.4,4.6-4.2,6.2c-1.8,1.6-3.8,2.8-6.2,3.5c-2.3,0.7-4.9,1.1-7.5,1.1
		c-2.8,0-5.3-0.4-7.7-1.1c-2.4-0.7-4.4-1.9-6.2-3.5c-1.7-1.6-3.1-3.7-4.1-6.2c-1-2.6-1.5-5.7-1.5-9.4V88h5.1v46.1
		c0,2.8,0.4,5.2,1.1,7.2c0.7,2,1.7,3.5,3,4.8c1.3,1.2,2.8,2.1,4.5,2.6c1.7,0.5,3.7,0.8,5.8,0.8s4-0.3,5.8-0.8
		c1.7-0.5,3.3-1.4,4.5-2.6c1.3-1.2,2.2-2.8,2.9-4.8c0.7-2,1.1-4.4,1.1-7.2V88H385.7z"/>
	<polygon points="473.9,154.2 468.7,154.2 437.5,97.8 437.5,154.2 432.2,154.2 432.2,88 437.5,88 468.8,144.5 468.8,88 473.9,88 	
		"/>
	<path d="M520.3,154.2V88h15.6c3.5,0,6.7,0.6,9.6,1.7c2.9,1.2,5.4,2.9,7.4,5.1c2.1,2.2,3.7,5,4.8,8.3c1.1,3.3,1.7,7.1,1.7,11.4v13.2
		c0,4.3-0.6,8.1-1.7,11.4c-1.1,3.3-2.7,6.1-4.8,8.3c-2.1,2.2-4.6,3.9-7.5,5.1c-2.9,1.2-6.2,1.7-9.8,1.7H520.3z M525.5,92.9v56.5
		h10.1c3,0,5.6-0.5,7.9-1.4c2.3-0.9,4.3-2.3,5.9-4.2c1.6-1.8,2.8-4.1,3.7-6.8c0.8-2.7,1.3-5.8,1.3-9.3v-13.4c0-3.6-0.4-6.7-1.3-9.3
		c-0.8-2.7-2.1-4.9-3.6-6.7c-1.6-1.8-3.5-3.2-5.8-4.1c-2.3-0.9-4.8-1.4-7.7-1.4H525.5z"/>
	<path d="M639.1,135.8h-24.8l-5.6,18.5h-5.4L624.3,88h4.8l21.1,66.3h-5.4L639.1,135.8z M615.7,130.9h21.8l-10.9-35.5L615.7,130.9z"
		/>
	<polygon points="734.9,92.9 716.1,92.9 716.1,154.2 710.9,154.2 710.9,92.9 692.1,92.9 692.1,88 734.9,88 	"/>
	<rect x="797.7" y="88" width="5.2" height="66.3"/>
	<path d="M908,128.1c0,4.3-0.5,8-1.4,11.3c-1,3.3-2.3,6-4.1,8.2c-1.8,2.2-4,3.9-6.6,5c-2.6,1.1-5.5,1.7-8.7,1.7
		c-3.2,0-6.1-0.6-8.6-1.7c-2.6-1.1-4.8-2.8-6.6-5c-1.8-2.2-3.2-4.9-4.2-8.2c-1-3.3-1.5-7-1.5-11.3v-13.9c0-4.3,0.5-8,1.5-11.3
		c1-3.3,2.4-6,4.2-8.2c1.8-2.2,4-3.9,6.6-5c2.6-1.1,5.4-1.7,8.6-1.7c3.2,0,6.1,0.6,8.7,1.7c2.6,1.1,4.8,2.8,6.6,5
		c1.8,2.2,3.2,5,4.2,8.2c1,3.3,1.5,7,1.5,11.3V128.1z M902.9,114.1c0-7.1-1.4-12.4-4.1-15.9c-2.7-3.5-6.6-5.3-11.7-5.3
		c-5,0-8.9,1.8-11.6,5.3c-2.8,3.5-4.2,8.8-4.2,15.9v14c0,7.1,1.4,12.4,4.2,16c2.8,3.6,6.7,5.3,11.7,5.3c5.1,0,9-1.8,11.7-5.3
		c2.7-3.5,4-8.9,4-16V114.1z"/>
	<polygon points="994.8,154.3 989.6,154.3 958.3,97.9 958.3,154.3 953.1,154.3 953.1,88 958.3,88 989.6,144.5 989.6,88 994.8,88 	
		"/>
	<path d="M128.1,0.5L128.1,0.5l-25.6,14.8v0v64.9L81.1,92.6l-4.3,2.5l0,0v0l-4.3-2.5L51.2,80.3V15.3l0,0v0l0,0L25.6,0.5l0,0L0,15.3
		v0v94.6l59.6,34.3v0h0l17.3,10l0-16.3h0v0h0l0,16.3l17.3-10v0l59.6-34.4V15.3v0L128.1,0.5z M21,93.5l-17.3-10V67.1l17.3,10V93.5z
		 M21,71.7l-17.3-10V45.3l17.3,10V71.7z M21,49.8l-17.3-10V23.5l17.3,10V49.8z M2.3,15.3L25.6,1.8l23.3,13.5L25.6,28.7L2.3,15.3z
		 M61.6,143.6v-13.6l14.9,8.6v13.6L61.6,143.6z M92.3,143.6l-14.9,8.6l0-13.6l14.9-8.6V143.6z M76.9,123.3L28,95.1l23.3-13.5
		l20.2,11.7l0,0v0l5.5,3.1l5.5-3.1v0l0,0l20.2-11.7l23.3,13.5L76.9,123.3z M150,82.7l-17.3,10V76.4l17.3-10V82.7z M150,61.3
		l-17.3,10V54.9L150,45V61.3z M150,39.9l-17.3,10V33.5l17.3-10V39.9z M128.1,28.7l-23.3-13.4l23.3-13.5l23.3,13.5L128.1,28.7z"/>
</g>
</svg>
